<svg xmlns="http://www.w3.org/2000/svg" viewBox="0 0 24 24" width="48" height="48">
  <circle cx="12" cy="12" r="12" fill="#F7931A"/>
  <path d="M16.4 10.2c.2-1.4-.8-2.2-2.3-2.7l.5-1.9-1.2-.3-.5 1.8c-.3-.1-.6-.2-.9-.2l.5-1.8-1.2-.3-.5 1.9c-.2-.1-.5-.1-.7-.2l-1.6-.4-.3 1.3s.8.2.8.2c.5.1.6.4.5.6l-.5 2c0 0 .1 0 .1 0-.1 0-.1 0-.2 0l-.7 2.8c0 .2-.2.4-.5.3 0 0-.8-.2-.8-.2l-.5 1.4 1.6.4c.3.1.6.1.8.2l-.5 1.9 1.2.3.5-1.9c.3.1.6.2.9.2l-.5 1.9 1.2.3.5-1.9c1.9.4 3.3.2 3.9-1.5.5-1.4 0-2.2-1-2.7.7-.2 1.3-.7 1.4-1.7zm-2.5 3.6c-.3 1.4-2.6.6-3.3.4l.6-2.3c.7.2 3 .6 2.7 1.9zm.4-3.5c-.3 1.2-2.2.6-2.8.5l.5-2.1c.6.1 2.5.4 2.3 1.6z" fill="white"/>
</svg>
